<svg width="48" height="48" viewBox="0 0 48 48" fill="none" xmlns="http://www.w3.org/2000/svg">
<path d="M24 6C17.82 6 12.96 10.695 12.2805 16.6875C10.9738 16.8989 9.74836 17.4592 8.73372 18.3094C7.71908 19.1595 6.95286 20.2679 6.516 21.5175C2.826 22.581 0 25.872 0 30C0 34.986 4.014 39 9 39H39C43.986 39 48 34.986 48 30C48 27.36 46.7175 24.996 44.859 23.343C44.511 18.072 40.3065 13.866 35.016 13.593C33.21 9.1995 29.067 6 24 6ZM24 9C28.143 9 31.455 11.655 32.625 15.42L32.955 16.5H34.5C38.6325 16.5 42 19.8675 42 24V24.75L42.609 25.2195C43.344 25.7828 43.9412 26.5059 44.3555 27.3342C44.7697 28.1624 44.9901 29.074 45 30C45 33.414 42.414 36 39 36H9C5.586 36 3 33.414 3 30C3 26.97 5.175 24.618 7.92 24.141L8.9055 23.9535L9.093 22.9665C9.543 20.946 11.334 19.5 13.5 19.5H15V18C15 12.945 18.945 9 24 9ZM24 17.391L22.92 18.4215L16.92 24.4215L19.08 26.5815L22.5 23.1555V33H25.5V23.1555L28.92 26.5785L31.08 24.4185L25.08 18.4185L24 17.391Z" fill="#97A6C3"/>
</svg>
